<?xml version="1.0" encoding="UTF-8"?>
<svg version="1.1" xmlns="http://www.w3.org/2000/svg" width="160" height="41">
<path d="M0 0 C52.8 0 105.6 0 160 0 C160 13.53 160 27.06 160 41 C107.2 41 54.4 41 0 41 C0 27.47 0 13.94 0 0 Z " fill="#101A26" transform="translate(0,0)"/>
<path d="M0 0 C1.32 0 2.64 0 4 0 C4 6.93 4 13.86 4 21 C2.081875 21.0825 0.16375 21.165 -1.8125 21.25 C-3.43091797 21.31960937 -3.43091797 21.31960937 -5.08203125 21.390625 C-8 21 -8 21 -9.86328125 19.234375 C-11.62831658 15.76495847 -11.5607863 12.80088494 -11 9 C-9.875 6.5 -9.875 6.5 -8 5 C-4.87376745 4.68099668 -2.82883747 4.58558126 0 6 C0 4.02 0 2.04 0 0 Z " fill="#E8E9EA" transform="translate(82,9)"/>
<path d="M0 0 C1.65 0 3.3 0 5 0 C5.33 2.31 5.66 4.62 6 7 C6.36351562 6.4946875 6.72703125 5.989375 7.1015625 5.46875 C11.25900515 0.09605489 11.25900515 0.09605489 15.375 -0.4375 C16.24125 -0.293125 17.1075 -0.14875 18 0 C17.55527344 0.45890625 17.11054688 0.9178125 16.65234375 1.390625 C16.08644531 2.00421875 15.52054688 2.6178125 14.9375 3.25 C14.36902344 3.85328125 13.80054688 4.4565625 13.21484375 5.078125 C11.80508343 6.89100248 11.80508343 6.89100248 12.125 8.90625 C13.21695343 11.51913857 14.57306308 13.84154882 16.0625 16.25 C16.61035156 17.14203125 17.15820312 18.0340625 17.72265625 18.953125 C18.35494141 19.96632813 18.35494141 19.96632813 19 21 C16.3125 21.5 16.3125 21.5 13 21 C11.39809638 19.02041179 10.25347296 17.00666808 9.078125 14.75 C8.72234375 14.1725 8.3665625 13.595 8 13 C7.34 13 6.68 13 6 13 C5.67 15.64 5.34 18.28 5 21 C3.35 21 1.7 21 0 21 C0 14.07 0 7.14 0 0 Z " fill="#E9E9EB" transform="translate(8,9)"/>
<path d="M0 0 C1.94140625 0.45703125 1.94140625 0.45703125 4.44140625 2.70703125 C5.94140625 5.45703125 5.94140625 5.45703125 5.94140625 9.45703125 C2.31140625 9.45703125 -1.31859375 9.45703125 -5.05859375 9.45703125 C-4.72859375 10.77703125 -4.39859375 12.09703125 -4.05859375 13.45703125 C0.39640625 12.96203125 0.39640625 12.96203125 4.94140625 12.45703125 C4.28140625 13.77703125 3.62140625 15.09703125 2.94140625 16.45703125 C-0.37109375 17.51953125 -0.37109375 17.51953125 -4.05859375 17.45703125 C-7.03439638 15.49426781 -8.72461533 14.06648918 -9.46875 10.48046875 C-9.60161676 7.3956491 -9.20289669 4.81778859 -8.05859375 1.95703125 C-5.46243556 0.00991261 -3.20245302 -0.159238 0 0 Z " fill="#EDEEEF" transform="translate(114.05859375,13.54296875)"/>
<path d="M0 0 C2.475 0.495 2.475 0.495 5 1 C5.33 0.67 5.66 0.34 6 0 C11.29392491 -0.4603413 11.29392491 -0.4603413 13.68359375 1.09765625 C15.64837283 3.93696608 15.28858169 6.28441648 15.1875 9.6875 C15.16042969 10.86699219 15.13335937 12.04648437 15.10546875 13.26171875 C15.07066406 14.16535156 15.03585938 15.06898437 15 16 C13.35 16 11.7 16 10 16 C10 12.04 10 8.08 10 4 C8.35 4 6.7 4 5 4 C4.67 7.96 4.34 11.92 4 16 C2.68 16 1.36 16 0 16 C0 10.72 0 5.44 0 0 Z " fill="#D8DADB" transform="translate(122,14)"/>
<path d="M0 0 C4.29 0 8.58 0 13 0 C11.875 5.625 11.875 5.625 9.4375 8.8125 C8.98246094 9.41707031 8.52742187 10.02164062 8.05859375 10.64453125 C7.70925781 11.09183594 7.35992187 11.53914063 7 12 C9.31 12 11.62 12 14 12 C14 13.32 14 14.64 14 16 C9.38 16 4.76 16 0 16 C1.13617735 10.31911326 2.28325294 9.09795189 6 5 C3.03 4.505 3.03 4.505 0 4 C0 2.68 0 1.36 0 0 Z " fill="#DCDEDF" transform="translate(139,14)"/>
<path d="M0 0 C2.9375 0.875 2.9375 0.875 5.9375 2.875 C6.375 6.3125 6.375 6.3125 5.9375 9.875 C4.375 11.875 4.375 11.875 1.9375 12.875 C-4.38977273 12.54772727 -4.38977273 12.54772727 -7.0625 9.875 C-7.53421648 6.25850702 -7.48041658 4.50187488 -5.4375 1.4375 C-3.0625 -0.125 -3.0625 -0.125 0 0 Z " fill="#E4D4D5" transform="translate(44.0625,15.125)"/>
<path d="M0 0 C1.32 0 2.64 0 4 0 C4 5.61 4 11.22 4 17 C7.63 17 11.26 17 15 17 C15 18.32 15 19.64 15 21 C10.05 21 5.1 21 0 21 C0 14.07 0 7.14 0 0 Z " fill="#F2F3F3" transform="translate(89,9)"/>
<path d="M0 0 C1.32 0 2.64 0 4 0 C4 5.28 4 10.56 4 16 C-5.27734375 16.09765625 -5.27734375 16.09765625 -8 16 C-9 15 -9 15 -9.09765625 11.83984375 C-9.08025391 9.90818359 -9.08025391 9.90818359 -9.0625 7.9375 C-9.05347656 6.64714844 -9.04445312 5.35679688 -9.03515625 4.02734375 C-9.02355469 3.02832031 -9.01195312 2.02929688 -9 1 C-8.01 1 -7.02 1 -6 1 C-5.67 4.63 -5.34 8.26 -5 12 C-3.68 12 -2.36 12 -1 12 C-0.67 8.04 -0.34 4.08 0 0 Z " fill="#ECEDEE" transform="translate(64,14)"/>
<path d="M0 0 C0 6.6 0 13.2 0 20 C-3.30340112 16.69659888 -5.73401447 14.02841872 -8 10 C-7.6515084 6.65974092 -6.39193828 5.02694125 -4 2.75 C-3.195625 1.96882812 -3.195625 1.96882812 -2.375 1.171875 C-1 0 -1 0 0 0 Z " fill="#0F1A25" transform="translate(28,10)"/>
<path d="M0 0 C0.99 0 1.98 0 3 0 C3 6.93 3 13.86 3 21 C0.69 20.67 -1.62 20.34 -4 20 C-3.67257813 19.43796875 -3.34515625 18.8759375 -3.0078125 18.296875 C-1.88214506 15.73140036 -1.7931889 14.03157723 -1.875 11.25 C-1.89304687 10.45078125 -1.91109375 9.6515625 -1.9296875 8.828125 C-1.95289062 8.22484375 -1.97609375 7.6215625 -2 7 C-1.34 7 -0.68 7 0 7 C0 4.69 0 2.38 0 0 Z " fill="#EFF0F1" transform="translate(83,9)"/>
<path d="M0 0 C1.32 0 2.64 0 4 0 C4 6.93 4 13.86 4 21 C2.68 21 1.36 21 0 21 C0 14.07 0 7.14 0 0 Z " fill="#ECEDEE" transform="translate(29,9)"/>
<path d="M0 0 C0.66 0 1.32 0 2 0 C1.125 4.875 1.125 4.875 0 6 C-0.04080783 7.99958364 -0.04254356 10.00045254 0 12 C3.465 13.485 3.465 13.485 7 15 C7 15.99 7 16.98 7 18 C2.98313013 18.46707789 1.43498188 18.32150834 -1.875 15.875 C-4.33346176 12.54884585 -4.45852001 11.03497607 -4 7 C-4 6.67 -4 6.34 -4 6 C-1.29411765 1.29411765 -1.29411765 1.29411765 0 0 Z " fill="#A62231" transform="translate(38,13)"/>
<path d="M0 0 C1.5 1.375 1.5 1.375 3 3 C3 3.66 3 4.32 3 5 C3.66 5 4.32 5 5 5 C5 7.64 5 10.28 5 13 C1.91190305 14.76462683 0.76687864 15 -3 15 C-3.33 14.01 -3.66 13.02 -4 12 C-3.01 11.34 -2.02 10.68 -1 10 C-0.26393501 6.43230448 -0.26393501 6.43230448 0 3 C-0.99 2.67 -1.98 2.34 -3 2 C-2.01 1.34 -1.02 0.68 0 0 Z " fill="#32232F" transform="translate(50,15)"/>
<path d="M0 0 C1.32 0 2.64 0 4 0 C5.30267176 5.50016964 4.71033431 10.47032059 4 16 C2.68 16 1.36 16 0 16 C0 10.72 0 5.44 0 0 Z " fill="#F0F1F2" transform="translate(122,14)"/>
<path d="M0 0 C0.99 0 1.98 0 3 0 C3.03738281 0.77085938 3.07476562 1.54171875 3.11328125 2.3359375 C3.17902344 3.33882812 3.24476562 4.34171875 3.3125 5.375 C3.37050781 6.37273438 3.42851563 7.37046875 3.48828125 8.3984375 C3.65714844 9.25695313 3.82601562 10.11546875 4 11 C4.99 11.66 5.98 12.32 7 13 C7.33 13.66 7.66 14.32 8 15 C5.66705225 15.04241723 3.33297433 15.04092937 1 15 C0 14 0 14 -0.09765625 10.83984375 C-0.08025391 8.90818359 -0.08025391 8.90818359 -0.0625 6.9375 C-0.05347656 5.64714844 -0.04445312 4.35679688 -0.03515625 3.02734375 C-0.02355469 2.02832031 -0.01195312 1.02929688 0 0 Z " fill="#F4F5F5" transform="translate(55,15)"/>
<path d="M0 0 C2.5 0.125 2.5 0.125 3.5 1.125 C3.6875 4.0625 3.6875 4.0625 3.5 7.125 C2.84 7.785 2.18 8.445 1.5 9.125 C-2.03571429 8.58928571 -2.03571429 8.58928571 -3.5 7.125 C-3.625 4.125 -3.625 4.125 -3.5 1.125 C-2.5 0.125 -2.5 0.125 0 0 Z " fill="#1E2833" transform="translate(78.5,17.875)"/>
<path d="M0 0 C2.5 0.125 2.5 0.125 3.5 1.125 C3.6875 3.5625 3.6875 3.5625 3.5 6.125 C2.84 6.785 2.18 7.445 1.5 8.125 C-2.03571429 7.58928571 -2.03571429 7.58928571 -3.5 6.125 C-3.625 3.625 -3.625 3.625 -3.5 1.125 C-2.5 0.125 -2.5 0.125 0 0 Z " fill="#444445" transform="translate(43.5,17.875)"/>
<path d="M0 0 C0.33 0 0.66 0 1 0 C1.16873478 1.43725871 1.33490737 2.87481838 1.5 4.3125 C1.5928125 5.11300781 1.685625 5.91351563 1.78125 6.73828125 C2.10968103 10.13402355 1.89129823 13.3125528 1.5 16.6875 C1.4071875 17.49574219 1.314375 18.30398437 1.21875 19.13671875 C1.11046875 20.05904297 1.11046875 20.05904297 1 21 C-2.66237906 14.57274189 -1.0238386 7.03889035 0 0 Z " fill="#3B3943" transform="translate(33,9)"/>
<path d="M0 0 C3.63 0 7.26 0 11 0 C10.67 1.32 10.34 2.64 10 4 C7.03 4 4.06 4 1 4 C0.67 2.68 0.34 1.36 0 0 Z " fill="#343D47" transform="translate(109,23)"/>
<path d="M0 0 C0.66 0 1.32 0 2 0 C1.32829194 3.8063457 0.27253436 7.35206816 -1 11 C-1.33 11 -1.66 11 -2 11 C-2 9.35 -2 7.7 -2 6 C-2.66 5.67 -3.32 5.34 -4 5 C-2.71937515 3.2925002 -1.38232443 1.62626404 0 0 Z " fill="#B52E3C" transform="translate(38,13)"/>
<path d="M0 0 C3.125 0.375 3.125 0.375 6 1 C5.67 1.99 5.34 2.98 5 4 C2.69 4 0.38 4 -2 4 C-2.33 4.66 -2.66 5.32 -3 6 C-2.42655063 3.13275314 -2.1385485 2.1385485 0 0 Z " fill="#E4E0E1" transform="translate(41,15)"/>
<path d="M0 0 C1.5 1.1875 1.5 1.1875 3 3 C3.1875 5.6875 3.1875 5.6875 3 8 C2.01 7.67 1.02 7.34 0 7 C0 5.68 0 4.36 0 3 C-0.99 2.67 -1.98 2.34 -3 2 C-2.01 1.34 -1.02 0.68 0 0 Z " fill="#AE2736" transform="translate(50,15)"/>
<path d="M0 0 C2.64 0.33 5.28 0.66 8 1 C8 1.66 8 2.32 8 3 C4.94736336 3.98120464 3.05263664 3.98120464 0 3 C0 2.01 0 1.02 0 0 Z " fill="#B12433" transform="translate(41,12)"/>
<path d="M0 0 C0.99 0 1.98 0 3 0 C3.66 2.31 4.32 4.62 5 7 C4.01 7.33 3.02 7.66 2 8 C0 6 0 6 -0.125 2.875 C-0.08375 1.92625 -0.0425 0.9775 0 0 Z " fill="#D6CACC" transform="translate(37,19)"/>
<path d="M0 0 C1.65 0 3.3 0 5 0 C4.4375 1.9375 4.4375 1.9375 3 4 C-0.625 4.75 -0.625 4.75 -4 5 C-2.68 4.67 -1.36 4.34 0 4 C0 2.68 0 1.36 0 0 Z " fill="#CACDCF" transform="translate(114,26)"/>
<path d="M0 0 C0.66 0.33 1.32 0.66 2 1 C1.75 2.875 1.75 2.875 1 5 C-1.0625 6.25 -1.0625 6.25 -3 7 C-3.33 6.01 -3.66 5.02 -4 4 C-2.68 2.68 -1.36 1.36 0 0 Z " fill="#BC2837" transform="translate(50,23)"/>
<path d="M0 0 C1.65 0.33 3.3 0.66 5 1 C5 1.99 5 2.98 5 4 C3.02 4 1.04 4 -1 4 C-0.67 2.68 -0.34 1.36 0 0 Z " fill="#BE2938" transform="translate(40,27)"/>
<path d="M0 0 C1.65 0 3.3 0 5 0 C5.33 0.99 5.66 1.98 6 3 C3.69 3 1.38 3 -1 3 C-0.67 2.01 -0.34 1.02 0 0 Z " fill="#333D47" transform="translate(110,18)"/>
<path d="M0 0 C0.33 0 0.66 0 1 0 C1.33 3.3 1.66 6.6 2 10 C1.01 10 0.02 10 -1 10 C-0.67 6.7 -0.34 3.4 0 0 Z " fill="#EAEBEC" transform="translate(31,19)"/>
</svg>
